# xmcd
#
# Track frame offsets:
#	150
#	20316
#	39140
#	56458
#	71711
#	85961
#	103392
#	120451
#	136497
#	151879
#	164910
#	176811
#
# Disc length: 2639 seconds
#
# Revision: 1
# Processed by: cddbd v1.5PL3 Copyright (c) Steve Scherf et al.
# Submitted via: audiograbber 1.80
#
DISCID=a20a4d0c
DTITLE=Chris Isaak - Always Got Tonight
DYEAR=1900
DGENRE=
TTITLE0=One Day
TTITLE1=Let Me Down Easy
TTITLE2=Worked It Out Wrong
TTITLE3=Courthouse
TTITLE4=Life Will Go On
TTITLE5=Always Got Tonight
TTITLE6=Cool Love
TTITLE7=Notice The Ring
TTITLE8=I See You Everywhere
TTITLE9=American Boy
TTITLE10=Somebody To Love
TTITLE11=Nothing To Say
EXTD=
EXTT0=
EXTT1=
EXTT2=
EXTT3=
EXTT4=
EXTT5=
EXTT6=
EXTT7=
EXTT8=
EXTT9=
EXTT10=
EXTT11=
PLAYORDER=
